@startuml Simple Composite State Model - State Diagram

skin rose

title Simple Composite State Model
[*] --> NeilDiamond
state NeilDiamond 

state "Neil Diamond" as NeilDiamond {
  state Dancing
  state Singing
  state Smiling
  Dancing --> Singing
  Singing --> Smiling
  Smiling --> Dancing
}

@enduml